# xmcd
#
# Track frame offsets:
#	150
#	12327
#	21565
#	35000
#	47270
#	60650
#	72712
#	86415
#	99322
#	111140
#
# Disc length: 1628 seconds
#
# Revision: 0
# Processed by: cddbd v1.5.1PL0 Copyright (c) Steve Scherf et al.
# Submitted via: dBpowerAMP V4.0
#
DISCID=80065a0a
DTITLE=Tammy Wynette - American Music Legends (Cracker Barrel)
DYEAR=1900
DGENRE=
TTITLE0=Stand By Your Man
TTITLE1=Your Good Girl's Gonna Go Bad
TTITLE2=Apartment #9
TTITLE3=Help Me Make it Through the Night
TTITLE4=D-I-V-O-R-C-E
TTITLE5=There Goes My Everything
TTITLE6=Golden Ring w/George Jones
TTITLE7=Kids Say the Darndest Things
TTITLE8=I Don't Wanna Play House
TTITLE9=The Ways to Love a Man
EXTD=
EXTT0=
EXTT1=
EXTT2=
EXTT3=
EXTT4=
EXTT5=
EXTT6=
EXTT7=
EXTT8=
EXTT9=
PLAYORDER=
